<svg id="Layer_1" data-name="Layer 1" xmlns="http://www.w3.org/2000/svg" viewBox="0 0 212.05 69.78"><defs><style>.cls-1,.cls-5{fill:#231f20;}.cls-2,.cls-3,.cls-7{fill:none;}.cls-2,.cls-7,.cls-8{stroke:#00a651;}.cls-2,.cls-3,.cls-7,.cls-8{stroke-miterlimit:10;}.cls-2,.cls-3{stroke-width:3px;}.cls-3{stroke:#231f20;}.cls-4{fill:#00a651;}.cls-5{font-size:16px;font-family:Futura-Medium, Futura;font-weight:500;}.cls-6{letter-spacing:-0.02em;}.cls-7,.cls-8{stroke-width:0.75px;}.cls-8{fill:#fff;}</style></defs><rect class="cls-1" x="156.44" y="45.44" width="24.87" height="7.12" rx="3.56" transform="translate(119.87 217.87) rotate(-90)"/><rect class="cls-1" x="133.03" y="5.78" width="74.8" height="45.8" rx="3.63"/><rect class="cls-1" x="138.9" y="55.75" width="59.95" height="9.09" rx="4.55"/><line class="cls-2" x1="58.63" y1="47.41" x2="58.63" y2="12.99"/><line class="cls-2" x1="8.94" y1="42.83" x2="8.94" y2="8.41"/><path class="cls-3" d="M36.66,31.7c7,8.77,14.68,16.64,28.57,16.69l27.55.09"/><path class="cls-3" d="M30.5,23.8l.76,1"/><path class="cls-3" d="M2.92,8c13.26.05,20.82,7.39,27.58,15.8"/><line class="cls-3" x1="48.3" y1="43.21" x2="48.3" y2="19.66"/><line class="cls-3" x1="19.55" y1="36.54" x2="19.55" y2="12.99"/><line class="cls-3" x1="65.23" y1="8" x2="119.19" y2="8"/><polyline class="cls-3" points="102.89 8.41 109.87 24.58 134.33 24.58"/><polyline class="cls-3" points="78.89 48.48 111.21 38.51 131.18 38.51"/><line class="cls-3" x1="69.68" y1="47.69" x2="69.68" y2="8.41"/><circle class="cls-4" cx="131.18" cy="24.08" r="3.86"/><circle class="cls-4" cx="131.18" cy="38.51" r="3.86"/><path class="cls-3" d="M2.92,48.39C34,48.27,33.79,8.12,65.23,8"/><text class="cls-5" transform="translate(1.84 64.85)"><tspan class="cls-6">P</tspan><tspan x="8.24" y="0">ellan Cheng Lab</tspan></text><line class="cls-7" x1="143.89" y1="38.91" x2="158" y2="36.52"/><line class="cls-7" x1="167.62" y1="19.2" x2="158" y2="36.52"/><line class="cls-7" x1="185.37" y1="16.6" x2="167.62" y2="19.2"/><line class="cls-7" x1="200.74" y1="16.6" x2="186.39" y2="16.6"/><circle class="cls-8" cx="143.89" cy="38.91" r="2.39"/><circle class="cls-8" cx="158" cy="36.52" r="2.39"/><circle class="cls-8" cx="167.62" cy="19.2" r="2.39"/><circle class="cls-8" cx="200.74" cy="16.6" r="2.39"/><circle class="cls-8" cx="185.37" cy="16.6" r="2.39"/></svg>